#
#
#

mtllib Fish/fish.mtl


#
# pCone1 Mesh
#
g pCone1 Mesh


#
# pCone1 Mesh_fish
#
usemtl pCone1 Mesh_fish

v 0.000000 0.113931 -0.412039
v 0.015033 0.024598 -0.239542
v -0.015033 0.024598 -0.239542
v 0.000000 -0.113931 -0.412039
v -0.056105 0.020008 0.310759
v 0.000000 -0.060938 0.372726
v -0.000194 0.052660 0.574681
v 0.055317 0.020008 0.310759
v 0.000000 0.109188 -0.006074
v -0.067395 0.000000 -0.006074
v 0.067395 0.000000 -0.006074
v 0.000000 -0.095841 -0.006074
v 0.000000 0.070247 -0.185194
v 0.000000 -0.025444 -0.185194
vn -0.000000 -0.887984 -0.459874
vn -0.000000 -0.099218 -0.995066
vn 0.000000 0.779696 -0.626158
vn -0.977184 -0.164694 0.134117
vn -0.857276 -0.492077 0.151452
vn -0.982643 0.079307 0.167701
vn 0.859728 -0.487854 0.151215
vn 0.977609 -0.162237 0.134016
vn 0.982673 0.080335 0.167035
vn -0.827253 0.559647 -0.049487
vn -0.996741 0.006209 -0.080429
vn 0.996800 0.006306 -0.079692
vn 0.828049 0.558516 -0.048941
vn 0.827996 -0.554458 -0.083657
vn -0.827033 -0.555812 -0.084202
vn -0.927728 0.372065 -0.029818
vn -0.998940 0.012088 -0.044422
vn 0.998940 0.012088 -0.044422
vn 0.927728 0.372065 -0.029818
vn 0.931271 -0.360423 -0.053193
vn -0.931271 -0.360423 -0.053193
vn -0.964739 0.258458 0.049773
vn 0.964739 0.258458 0.049773
vn 0.975294 -0.205808 0.080281
vn -0.975294 -0.205807 0.080281
vt 0.750000 0.250000
vt 0.500000 0.466506
vt 0.500000 0.033494
vt 0.250000 0.250000
vt 0.291667 0.500000
vt 0.416667 0.500000
vt 0.583333 0.750000
vt 0.541667 0.500000
f 1/1/1 2/2/2 3/3/2
f 3/3/2 2/2/2 4/4/3
f 5/5/4 6/6/5 7/7/6
f 6/6/7 8/8/8 7/7/9
f 5/3/4 7/1/6 9/1/10 10/3/11
f 7/1/9 8/2/8 11/2/12 9/1/13
f 8/2/8 6/4/7 12/4/14 11/2/12
f 6/4/5 5/3/4 10/3/11 12/4/15
f 10/3/11 9/1/10 13/1/16 3/3/17
f 9/1/13 11/2/12 2/2/18 13/1/19
f 11/2/12 12/4/14 14/4/20 2/2/18
f 12/4/15 10/3/11 3/3/17 14/4/21
f 3/3/17 13/1/16 1/1/22
f 13/1/19 2/2/18 1/1/23
f 2/2/18 14/4/20 4/4/24
f 14/4/21 3/3/17 4/4/25
